<mxfile host="Electron" modified="2024-08-22T09:48:51.767Z" agent="Mozilla/5.0 (X11; Linux x86_64) AppleWebKit/537.36 (KHTML, like Gecko) draw.io/24.0.4 Chrome/120.0.6099.109 Electron/28.1.0 Safari/537.36" etag="eadES-kbg8TGyWMhXvLW" version="24.0.4" type="device">
  <diagram id="C5RBs43oDa-KdzZeNtuy" name="Page-1">
    <mxGraphModel dx="1434" dy="873" grid="1" gridSize="10" guides="1" tooltips="1" connect="1" arrows="1" fold="1" page="1" pageScale="1" pageWidth="827" pageHeight="1169" math="0" shadow="0">
      <root>
        <mxCell id="WIyWlLk6GJQsqaUBKTNV-0" />
        <mxCell id="WIyWlLk6GJQsqaUBKTNV-1" parent="WIyWlLk6GJQsqaUBKTNV-0" />
        <mxCell id="F7I1QWoTkHTFK6ntbGi_-11" value="" style="edgeStyle=orthogonalEdgeStyle;rounded=0;orthogonalLoop=1;jettySize=auto;html=1;endArrow=block;endFill=0;" edge="1" parent="WIyWlLk6GJQsqaUBKTNV-1" source="WIyWlLk6GJQsqaUBKTNV-3" target="F7I1QWoTkHTFK6ntbGi_-5">
          <mxGeometry relative="1" as="geometry" />
        </mxCell>
        <mxCell id="WIyWlLk6GJQsqaUBKTNV-3" value="&lt;font face=&quot;Courier New&quot;&gt;_register_or_update_user(entries, user_account)&lt;/font&gt;" style="rounded=1;whiteSpace=wrap;html=1;fontSize=12;glass=0;strokeWidth=1;shadow=0;" parent="WIyWlLk6GJQsqaUBKTNV-1" vertex="1">
          <mxGeometry x="195" y="80" width="350" height="40" as="geometry" />
        </mxCell>
        <mxCell id="F7I1QWoTkHTFK6ntbGi_-13" value="" style="edgeStyle=orthogonalEdgeStyle;rounded=0;orthogonalLoop=1;jettySize=auto;html=1;endArrow=block;endFill=0;" edge="1" parent="WIyWlLk6GJQsqaUBKTNV-1" source="WIyWlLk6GJQsqaUBKTNV-6" target="F7I1QWoTkHTFK6ntbGi_-1">
          <mxGeometry relative="1" as="geometry" />
        </mxCell>
        <mxCell id="F7I1QWoTkHTFK6ntbGi_-14" value="" style="edgeStyle=orthogonalEdgeStyle;rounded=0;orthogonalLoop=1;jettySize=auto;html=1;endArrow=block;endFill=0;" edge="1" parent="WIyWlLk6GJQsqaUBKTNV-1" source="WIyWlLk6GJQsqaUBKTNV-6" target="F7I1QWoTkHTFK6ntbGi_-7">
          <mxGeometry relative="1" as="geometry" />
        </mxCell>
        <mxCell id="WIyWlLk6GJQsqaUBKTNV-6" value="&lt;font face=&quot;Courier New&quot;&gt;user_account&lt;/font&gt;&lt;div&gt;is None&lt;/div&gt;" style="rhombus;whiteSpace=wrap;html=1;shadow=0;fontFamily=Helvetica;fontSize=12;align=center;strokeWidth=1;spacing=6;spacingTop=-4;" parent="WIyWlLk6GJQsqaUBKTNV-1" vertex="1">
          <mxGeometry x="307.5" y="290" width="125" height="100" as="geometry" />
        </mxCell>
        <mxCell id="F7I1QWoTkHTFK6ntbGi_-21" style="edgeStyle=orthogonalEdgeStyle;rounded=0;orthogonalLoop=1;jettySize=auto;html=1;endArrow=block;endFill=0;" edge="1" parent="WIyWlLk6GJQsqaUBKTNV-1" source="F7I1QWoTkHTFK6ntbGi_-1" target="F7I1QWoTkHTFK6ntbGi_-2">
          <mxGeometry relative="1" as="geometry" />
        </mxCell>
        <mxCell id="F7I1QWoTkHTFK6ntbGi_-1" value="&lt;b&gt;Register new user&lt;/b&gt;&lt;div&gt;&lt;br&gt;&lt;/div&gt;&lt;div&gt;&lt;br&gt;&lt;/div&gt;&lt;div&gt;1. Create new user in &lt;font face=&quot;Courier New&quot;&gt;security.datastore&lt;/font&gt;&amp;nbsp;with email, active=True and random password&lt;/div&gt;&lt;div&gt;&lt;br&gt;&lt;/div&gt;&lt;div&gt;2. Query db by email to return &lt;font face=&quot;Courier New&quot;&gt;user_account&lt;/font&gt;&lt;/div&gt;&lt;div&gt;&lt;span style=&quot;background-color: initial;&quot;&gt;&lt;br&gt;&lt;/span&gt;&lt;/div&gt;" style="rounded=1;whiteSpace=wrap;html=1;absoluteArcSize=1;arcSize=14;strokeWidth=1;" vertex="1" parent="WIyWlLk6GJQsqaUBKTNV-1">
          <mxGeometry x="480" y="275" width="350" height="130" as="geometry" />
        </mxCell>
        <mxCell id="F7I1QWoTkHTFK6ntbGi_-22" value="" style="edgeStyle=orthogonalEdgeStyle;rounded=0;orthogonalLoop=1;jettySize=auto;html=1;endArrow=block;endFill=0;" edge="1" parent="WIyWlLk6GJQsqaUBKTNV-1" source="F7I1QWoTkHTFK6ntbGi_-2" target="F7I1QWoTkHTFK6ntbGi_-4">
          <mxGeometry relative="1" as="geometry" />
        </mxCell>
        <mxCell id="F7I1QWoTkHTFK6ntbGi_-2" value="Set &lt;font face=&quot;Courier New&quot;&gt;user_account.username&lt;/font&gt;" style="rounded=1;whiteSpace=wrap;html=1;absoluteArcSize=1;arcSize=14;strokeWidth=1;" vertex="1" parent="WIyWlLk6GJQsqaUBKTNV-1">
          <mxGeometry x="560" y="440" width="190" height="40" as="geometry" />
        </mxCell>
        <mxCell id="F7I1QWoTkHTFK6ntbGi_-24" style="edgeStyle=orthogonalEdgeStyle;rounded=0;orthogonalLoop=1;jettySize=auto;html=1;entryX=1;entryY=0.5;entryDx=0;entryDy=0;endArrow=block;endFill=0;" edge="1" parent="WIyWlLk6GJQsqaUBKTNV-1" source="F7I1QWoTkHTFK6ntbGi_-4" target="F7I1QWoTkHTFK6ntbGi_-6">
          <mxGeometry relative="1" as="geometry" />
        </mxCell>
        <mxCell id="F7I1QWoTkHTFK6ntbGi_-4" value="*Set &lt;font face=&quot;Courier New&quot;&gt;user_account.user_profile[&#39;full_name&#39;]&lt;/font&gt;" style="rounded=1;whiteSpace=wrap;html=1;absoluteArcSize=1;arcSize=14;strokeWidth=1;" vertex="1" parent="WIyWlLk6GJQsqaUBKTNV-1">
          <mxGeometry x="490" y="510" width="330" height="40" as="geometry" />
        </mxCell>
        <mxCell id="F7I1QWoTkHTFK6ntbGi_-12" value="" style="edgeStyle=orthogonalEdgeStyle;rounded=0;orthogonalLoop=1;jettySize=auto;html=1;endArrow=block;endFill=0;" edge="1" parent="WIyWlLk6GJQsqaUBKTNV-1" source="F7I1QWoTkHTFK6ntbGi_-5" target="WIyWlLk6GJQsqaUBKTNV-6">
          <mxGeometry relative="1" as="geometry" />
        </mxCell>
        <mxCell id="F7I1QWoTkHTFK6ntbGi_-5" value="&lt;b&gt;Extract attribs from &lt;/b&gt;&lt;font face=&quot;Courier New&quot;&gt;entries&lt;/font&gt;&lt;br&gt;&lt;div&gt;&lt;span style=&quot;background-color: initial;&quot;&gt;&lt;br&gt;&lt;/span&gt;&lt;/div&gt;&lt;div&gt;&lt;span style=&quot;background-color: initial;&quot;&gt;username, email &amp;amp;&amp;nbsp;&lt;/span&gt;&lt;span style=&quot;background-color: initial;&quot;&gt;full_name*&amp;nbsp;&lt;/span&gt;&lt;/div&gt;" style="rounded=1;whiteSpace=wrap;html=1;absoluteArcSize=1;arcSize=14;strokeWidth=1;" vertex="1" parent="WIyWlLk6GJQsqaUBKTNV-1">
          <mxGeometry x="217.5" y="150" width="305" height="110" as="geometry" />
        </mxCell>
        <mxCell id="F7I1QWoTkHTFK6ntbGi_-6" value="return&amp;nbsp;&lt;font face=&quot;Courier New&quot;&gt;user_account&lt;/font&gt;" style="rounded=1;whiteSpace=wrap;html=1;absoluteArcSize=1;arcSize=14;strokeWidth=1;" vertex="1" parent="WIyWlLk6GJQsqaUBKTNV-1">
          <mxGeometry x="340" y="620" width="190" height="40" as="geometry" />
        </mxCell>
        <mxCell id="F7I1QWoTkHTFK6ntbGi_-15" value="" style="edgeStyle=orthogonalEdgeStyle;rounded=0;orthogonalLoop=1;jettySize=auto;html=1;endArrow=block;endFill=0;" edge="1" parent="WIyWlLk6GJQsqaUBKTNV-1" source="F7I1QWoTkHTFK6ntbGi_-7" target="F7I1QWoTkHTFK6ntbGi_-8">
          <mxGeometry relative="1" as="geometry" />
        </mxCell>
        <mxCell id="F7I1QWoTkHTFK6ntbGi_-7" value="&lt;b&gt;Update existing user&lt;/b&gt;" style="rounded=1;whiteSpace=wrap;html=1;absoluteArcSize=1;arcSize=14;strokeWidth=1;" vertex="1" parent="WIyWlLk6GJQsqaUBKTNV-1">
          <mxGeometry x="90" y="312.5" width="170" height="55" as="geometry" />
        </mxCell>
        <mxCell id="F7I1QWoTkHTFK6ntbGi_-16" value="" style="edgeStyle=orthogonalEdgeStyle;rounded=0;orthogonalLoop=1;jettySize=auto;html=1;endArrow=block;endFill=0;" edge="1" parent="WIyWlLk6GJQsqaUBKTNV-1" source="F7I1QWoTkHTFK6ntbGi_-8" target="F7I1QWoTkHTFK6ntbGi_-9">
          <mxGeometry relative="1" as="geometry" />
        </mxCell>
        <mxCell id="F7I1QWoTkHTFK6ntbGi_-8" value="Update&amp;nbsp;&lt;font face=&quot;Courier New&quot;&gt;user_account.username&lt;/font&gt;" style="rounded=1;whiteSpace=wrap;html=1;absoluteArcSize=1;arcSize=14;strokeWidth=1;" vertex="1" parent="WIyWlLk6GJQsqaUBKTNV-1">
          <mxGeometry x="70" y="405" width="210" height="40" as="geometry" />
        </mxCell>
        <mxCell id="F7I1QWoTkHTFK6ntbGi_-17" value="" style="edgeStyle=orthogonalEdgeStyle;rounded=0;orthogonalLoop=1;jettySize=auto;html=1;endArrow=block;endFill=0;" edge="1" parent="WIyWlLk6GJQsqaUBKTNV-1" source="F7I1QWoTkHTFK6ntbGi_-9" target="F7I1QWoTkHTFK6ntbGi_-10">
          <mxGeometry relative="1" as="geometry" />
        </mxCell>
        <mxCell id="F7I1QWoTkHTFK6ntbGi_-9" value="*Update&amp;nbsp;&lt;font face=&quot;Courier New&quot;&gt;user_account.user_profile[&#39;full_name&#39;]&lt;/font&gt;" style="rounded=1;whiteSpace=wrap;html=1;absoluteArcSize=1;arcSize=14;strokeWidth=1;" vertex="1" parent="WIyWlLk6GJQsqaUBKTNV-1">
          <mxGeometry x="10" y="480" width="330" height="40" as="geometry" />
        </mxCell>
        <mxCell id="F7I1QWoTkHTFK6ntbGi_-23" style="edgeStyle=orthogonalEdgeStyle;rounded=0;orthogonalLoop=1;jettySize=auto;html=1;entryX=0;entryY=0.5;entryDx=0;entryDy=0;endArrow=block;endFill=0;" edge="1" parent="WIyWlLk6GJQsqaUBKTNV-1" source="F7I1QWoTkHTFK6ntbGi_-10" target="F7I1QWoTkHTFK6ntbGi_-6">
          <mxGeometry relative="1" as="geometry" />
        </mxCell>
        <mxCell id="F7I1QWoTkHTFK6ntbGi_-10" value="Update&amp;nbsp;&lt;font face=&quot;Courier New&quot;&gt;user_account.email&lt;/font&gt;" style="rounded=1;whiteSpace=wrap;html=1;absoluteArcSize=1;arcSize=14;strokeWidth=1;" vertex="1" parent="WIyWlLk6GJQsqaUBKTNV-1">
          <mxGeometry x="70" y="560" width="210" height="40" as="geometry" />
        </mxCell>
        <mxCell id="F7I1QWoTkHTFK6ntbGi_-25" value="Yes" style="text;html=1;align=center;verticalAlign=middle;whiteSpace=wrap;rounded=0;" vertex="1" parent="WIyWlLk6GJQsqaUBKTNV-1">
          <mxGeometry x="420" y="350" width="60" height="30" as="geometry" />
        </mxCell>
        <mxCell id="F7I1QWoTkHTFK6ntbGi_-26" value="No" style="text;html=1;align=center;verticalAlign=middle;whiteSpace=wrap;rounded=0;" vertex="1" parent="WIyWlLk6GJQsqaUBKTNV-1">
          <mxGeometry x="260" y="350" width="60" height="30" as="geometry" />
        </mxCell>
        <mxCell id="F7I1QWoTkHTFK6ntbGi_-27" value="* &lt;span style=&quot;font-family: &amp;quot;Courier New&amp;quot;; background-color: initial;&quot;&gt;app.config[&#39;LDAPCLIENT_SEARCH&#39;][&#39;fullname_attribute&#39;] &lt;/span&gt;&lt;span style=&quot;background-color: initial;&quot;&gt;&lt;font face=&quot;Helvetica&quot;&gt;is set&lt;/font&gt;&lt;/span&gt;" style="text;html=1;align=left;verticalAlign=middle;whiteSpace=wrap;rounded=0;" vertex="1" parent="WIyWlLk6GJQsqaUBKTNV-1">
          <mxGeometry x="40" y="680" width="510" height="50" as="geometry" />
        </mxCell>
      </root>
    </mxGraphModel>
  </diagram>
</mxfile>
